<?xml version="1.0" encoding="utf-8"?>
<!-- Generator: Adobe Illustrator 26.1.0, SVG Export Plug-In . SVG Version: 6.00 Build 0)  -->
<svg version="1.1" id="Layer_1" xmlns="http://www.w3.org/2000/svg" xmlns:xlink="http://www.w3.org/1999/xlink" x="0px" y="0px"
	 viewBox="0 0 64 64" style="enable-background:new 0 0 64 64;" xml:space="preserve">
<style type="text/css">
	.st0{fill:#474F54;}
	.st1{fill:#32393F;}
	.st2{fill:#DADAE5;}
	.st3{fill:#C9C9D3;}
	.st4{fill:#EFEFF4;}
	.st5{fill:#E56A33;}
	.st6{clip-path:url(#SVGID_00000005227893360121685350000013235440353569123231_);}
	.st7{clip-path:url(#SVGID_00000073705246578022625060000001535020345808373400_);fill:#0ACBB4;}
	.st8{clip-path:url(#SVGID_00000073705246578022625060000001535020345808373400_);fill:#E56A33;}
</style>
<g>
	<path class="st0" d="M64,0v41.2l-3.8,3.9H3.8L0,41.2V0H64z"/>
	<path class="st1" d="M64,0v41.2l-3.8,3.9H32V0H64z"/>
	<path class="st2" d="M22.6,50.9h18.8v11.2H22.6V50.9z"/>
	<path class="st3" d="M32,50.9h9.4v11.2H32V50.9z"/>
	<path class="st4" d="M0,41.2h64v11.5H0V41.2z"/>
	<path class="st2" d="M32,41.2h32v11.5H32V41.2z"/>
	<path class="st4" d="M15.1,60.2h33.8V64H15.1V60.2z"/>
	<path class="st2" d="M32,60.2h16.9V64H32V60.2z"/>
	<path class="st2" d="M0,0"/>
	<g>
		<path class="st5" d="M45.1,7.5h11.4v3.8H45.1V7.5z M37.6,7.5h3.8v3.8h-3.8V7.5z M45.1,22.5h11.4v3.8H45.1V22.5z M37.6,22.5h3.8
			v3.8h-3.8V22.5z M37.6,15h18.9v3.8H37.6V15z M37.6,30h18.9v3.8H37.6V30z"/>
	</g>
</g>
<g id="Artwork_1_00000139286510770539847450000014139252570870333337_">
	<g>
		<defs>
			<rect id="SVGID_1_" x="20.5" y="44.4" width="23.1" height="5.3"/>
		</defs>
		<clipPath id="SVGID_00000044155110505767207560000003330411203359073459_">
			<use xlink:href="#SVGID_1_"  style="overflow:visible;"/>
		</clipPath>
		<g style="clip-path:url(#SVGID_00000044155110505767207560000003330411203359073459_);">
			<defs>
				<rect id="SVGID_00000144335697045302450970000004006406795054558633_" x="20.5" y="44.4" width="23.1" height="5.3"/>
			</defs>
			<clipPath id="SVGID_00000155119061232474078610000018194673889899691953_">
				<use xlink:href="#SVGID_00000144335697045302450970000004006406795054558633_"  style="overflow:visible;"/>
			</clipPath>
			<path style="clip-path:url(#SVGID_00000155119061232474078610000018194673889899691953_);fill:#0ACBB4;" d="M20.5,47.6v-1
				c0-1.5,0.9-2.2,2.6-2.2c0.5,0,1,0.1,1.4,0.2c0.2,0,0.3,0.2,0.2,0.4l-0.2,0.9c0,0.2-0.2,0.3-0.4,0.2c-0.3-0.1-0.6-0.1-1-0.1
				c-0.7,0-1,0.2-1,0.8v0.8c0,0.4,0.2,0.6,0.6,0.6c0.3,0,0.4-0.1,0.5-0.3v-0.2H23c-0.2,0-0.3-0.1-0.3-0.3v-0.6
				c0-0.2,0.1-0.3,0.3-0.3h1.8c0.2,0,0.3,0.1,0.3,0.3v0.9c0,1.3-0.8,2-2.3,2C21.3,49.6,20.5,48.9,20.5,47.6"/>
			<path style="clip-path:url(#SVGID_00000155119061232474078610000018194673889899691953_);fill:#0ACBB4;" d="M29.4,47.2v2.1
				c0,0.2-0.1,0.3-0.3,0.3h-0.9c-0.2,0-0.3-0.1-0.3-0.3v0c0-0.1,0-0.2,0.1-0.3l0-0.1h-0.2L27.8,49c-0.2,0.4-0.6,0.7-1.2,0.7
				c-0.8,0-1.3-0.4-1.3-1.2c0-0.9,0.5-1.3,1.7-1.3h0.6c-0.1-0.2-0.2-0.3-0.7-0.3c-0.3,0-0.5,0-0.8,0.1c-0.2,0.1-0.3,0-0.4-0.2
				l-0.2-0.8c0-0.2,0-0.3,0.2-0.4c0.4-0.1,0.9-0.1,1.4-0.1C28.7,45.4,29.4,46,29.4,47.2 M27.6,48.1v-0.2h-0.4
				c-0.2,0-0.3,0.1-0.3,0.3c0,0.2,0.1,0.3,0.3,0.3C27.5,48.4,27.6,48.3,27.6,48.1"/>
			<path style="clip-path:url(#SVGID_00000155119061232474078610000018194673889899691953_);fill:#0ACBB4;" d="M30.2,49.5
				c-0.2,0-0.3-0.1-0.3-0.3v-3.5c0-0.2,0.1-0.3,0.3-0.3h1.1c0.2,0,0.3,0.1,0.3,0.3v0c0,0.1,0,0.2-0.1,0.3l-0.1,0.1h0.2l0.1-0.2
				c0.2-0.4,0.5-0.6,1.1-0.6c0.9,0,1.4,0.6,1.4,1.6v2.2c0,0.2-0.1,0.3-0.3,0.3h-1.2c-0.2,0-0.3-0.1-0.3-0.3v-1.9
				c0-0.3-0.1-0.4-0.3-0.4c-0.3,0-0.4,0.2-0.4,0.5v1.9c0,0.2-0.1,0.3-0.3,0.3H30.2z"/>
			<path style="clip-path:url(#SVGID_00000155119061232474078610000018194673889899691953_);fill:#0ACBB4;" d="M38.5,47.2v2.1
				c0,0.2-0.1,0.3-0.3,0.3h-0.9c-0.2,0-0.3-0.1-0.3-0.3v0c0-0.1,0-0.2,0.1-0.3l0-0.1H37L36.9,49c-0.2,0.4-0.6,0.7-1.2,0.7
				c-0.8,0-1.3-0.4-1.3-1.2c0-0.9,0.5-1.3,1.7-1.3h0.6c-0.1-0.2-0.2-0.3-0.7-0.3c-0.3,0-0.5,0-0.8,0.1c-0.2,0.1-0.3,0-0.4-0.2
				l-0.2-0.8c0-0.2,0-0.3,0.2-0.4c0.4-0.1,0.9-0.1,1.4-0.1C37.8,45.4,38.5,46,38.5,47.2 M36.8,48.1v-0.2h-0.4
				c-0.2,0-0.3,0.1-0.3,0.3c0,0.2,0.1,0.3,0.3,0.3C36.7,48.4,36.8,48.3,36.8,48.1"/>
			<polyline style="clip-path:url(#SVGID_00000155119061232474078610000018194673889899691953_);fill:#0ACBB4;" points="40.7,48 
				40.7,48 40.7,48 			"/>
			<path style="clip-path:url(#SVGID_00000155119061232474078610000018194673889899691953_);fill:#0ACBB4;" d="M43.2,45.4
				c-0.2,0.1-0.4,0.1-0.6,0.1c-0.3,0-0.7-0.1-0.9-0.1c-0.5,0-0.7,0.3-1,0.9l-0.1,0.2h-0.2l0-0.1c0-0.2,0.1-0.3,0.1-0.5v-0.1
				c0-0.2-0.1-0.3-0.3-0.3h-1.1c-0.2,0-0.3,0.1-0.3,0.3v3.5c0,0.2,0.1,0.3,0.3,0.3h1.2c0.2,0,0.3-0.1,0.3-0.3v-1c0,0,0-1.3,0.1-1.4
				c0.2-0.5,0.6-0.8,1.2-0.8c0.1,0,0.3,0,0.5,0c0.1,0,0.3,0,0.4,0c0,0,0.1,0,0.1,0c0,0,0.1,0,0.1,0c0,0,0.1,0,0.1,0c0,0,0,0,0,0
				c0.1,0,0.2,0,0.2,0c0,0,0,0,0.1,0v-0.4C43.5,45.4,43.4,45.3,43.2,45.4"/>
			<path style="clip-path:url(#SVGID_00000155119061232474078610000018194673889899691953_);fill:#E56A33;" d="M42.5,46.5
				c-0.2,0-0.3,0-0.4,0c-0.4,0-0.7,0.2-0.9,0.5c-0.1,0.1-0.1,0.2-0.2,0.3c0,0,0,0.1,0,0.2c0,0,0,0,0.1,0c0,0,0,0,0,0c0,0,0,0,0,0
				c0,0,0,0,0,0c0,0,0,0,0,0c0,0,0,0,0,0c0,0,0,0,0,0c0,0,0,0,0,0c0,0,0,0,0,0c0,0,0,0,0,0c0,0,0,0,0,0c0,0,0,0,0.1,0c0,0,0,0,0,0
				c0,0,0,0,0.1,0c0,0,0,0,0,0c0,0,0.1,0,0.1,0c0.1,0,0.2,0,0.4,0c0.2,0,0.3,0,0.5,0c0.3,0,0.6,0,0.8-0.1c0.2-0.1,0.2-0.2,0.2-0.3
				v-0.4c-0.1,0-0.3,0.1-0.6,0.1C42.8,46.6,42.7,46.5,42.5,46.5"/>
		</g>
	</g>
</g>
</svg>
